HIERARCHY
ROOT RootJoint
{
    OFFSET   0.000000   0.000000   0.000000
    CHANNELS 6 Xposition Yposition Zposition Xrotation Yrotation Zrotation
    JOINT pelvis_lowerback
    {
        OFFSET   0.000000   0.093605   0.000000
        CHANNELS 3 Xrotation Yrotation Zrotation
        JOINT lowerback_torso
        {
            OFFSET   0.000000   0.100000   0.000000
            CHANNELS 3 Xrotation Yrotation Zrotation
            JOINT torso_head
            {
                OFFSET   0.000000   0.282350   0.000000
                CHANNELS 3 Xrotation Yrotation Zrotation
                End Site
                {
                    OFFSET   0.000000   0.192650   0.000000
                }
            }
            JOINT rTorso_Clavicle
            {
                OFFSET  -0.001000   0.157500   0.000000
                CHANNELS 3 Xrotation Yrotation Zrotation
                JOINT rShoulder
                {
                    OFFSET  -0.117647   0.000000   0.000000
                    CHANNELS 3 Xrotation Yrotation Zrotation
                    JOINT rElbow
                    {
                        OFFSET  -0.245000   0.000000   0.000000
                        CHANNELS 3 Xrotation Yrotation Zrotation
                        JOINT rWrist
                        {
                            OFFSET  -0.240000   0.000000   0.000000
                            CHANNELS 3 Xrotation Yrotation Zrotation
                            End Site
                            {
                                OFFSET  -0.116353  -0.002500   0.000000
                            }
                        }
                    }
                }
            }
            JOINT lTorso_Clavicle
            {
                OFFSET   0.001000   0.157500   0.000000
                CHANNELS 3 Xrotation Yrotation Zrotation
                JOINT lShoulder
                {
                    OFFSET   0.117647   0.000000   0.000000
                    CHANNELS 3 Xrotation Yrotation Zrotation
                    JOINT lElbow
                    {
                        OFFSET   0.245000   0.000000   0.000000
                        CHANNELS 3 Xrotation Yrotation Zrotation
                        JOINT lWrist
                        {
                            OFFSET   0.240000   0.000000   0.000000
                            CHANNELS 3 Xrotation Yrotation Zrotation
                            End Site
                            {
                                OFFSET   0.116353  -0.002500   0.000000
                            }
                        }
                    }
                }
            }
        }
    }
    JOINT rHip
    {
        OFFSET  -0.100000  -0.051395   0.000000
        CHANNELS 3 Xrotation Yrotation Zrotation
        JOINT rKnee
        {
            OFFSET   0.000000  -0.410000   0.000000
            CHANNELS 3 Xrotation Yrotation Zrotation
            JOINT rAnkle
            {
                OFFSET   0.000000  -0.390000   0.000000
                CHANNELS 3 Xrotation Yrotation Zrotation
                JOINT rToeJoint
                {
                    OFFSET   0.000000  -0.050000   0.130000
                    CHANNELS 3 Xrotation Yrotation Zrotation
                    End Site
                    {
                        OFFSET  -0.010000   0.002000   0.060000
                    }
                }
            }
        }
    }
    JOINT lHip
    {
        OFFSET   0.100000  -0.051395   0.000000
        CHANNELS 3 Xrotation Yrotation Zrotation
        JOINT lKnee
        {
            OFFSET   0.000000  -0.410000   0.000000
            CHANNELS 3 Xrotation Yrotation Zrotation
            JOINT lAnkle
            {
                OFFSET   0.000000  -0.390000   0.000000
                CHANNELS 3 Xrotation Yrotation Zrotation
                JOINT lToeJoint
                {
                    OFFSET   0.000000  -0.050000   0.130000
                    CHANNELS 3 Xrotation Yrotation Zrotation
                    End Site
                    {
                        OFFSET   0.010000   0.002000   0.060000
                    }
                }
            }
        }
    }
}
MOTION
Frames: 10
Frame Time:   0.008333
 -2.376719   0.925631   3.975860   0.000000   0.000000   0.000000   0.000000   0.000000   0.000000   0.000000   0.000000   0.000000   0.000000   0.000000   0.000000   0.000000   0.000000   0.000000   0.000000   0.000000   0.000000   0.000000   0.000000   0.000000   0.000000   0.000000   0.000000   0.000000   0.000000   0.000000   0.000000   0.000000   0.000000   0.000000   0.000000   0.000000   0.000000   0.000000   0.000000   0.000000   0.000000   0.000000   0.000000   0.000000   0.000000   0.000000   0.000000   0.000000   0.000000   0.000000   0.000000   0.000000   0.000000   0.000000   0.000000   0.000000   0.000000   0.000000   0.000000   0.000000   0.000000   0.000000   0.000000
 -2.376371   0.926400   3.976346  -0.762085   0.084310   0.098202   0.703331   0.026229  -0.053136   0.249292  -0.169727  -0.009299  -0.119721   0.118842   0.035370   0.238705  -0.283017   0.681780   1.010341   0.302382   1.843689   0.026964   1.196982  -0.015277   0.539899  -0.641139  -3.010861   0.215952   0.179198  -0.717308   0.935893  -0.021833  -1.894504   0.030154  -1.331704   0.015925   0.503335   0.562230   3.056137   0.686246  -0.017015  -0.306960   0.672504   0.001234   0.000394  -0.829319  -0.301285   0.090430  -0.084420  -0.000087   0.000170   0.733486  -0.013354  -0.006140   0.560235  -0.000443   0.000355  -0.775622   0.209091   0.089638   0.291294  -0.000457   0.000715
 -2.375898   0.927679   3.976933  -1.566566   0.203698   0.205131   1.354442   0.031168  -0.085872   0.552100  -0.358000  -0.012995  -0.207196   0.232172   0.075115   0.474866  -0.469957   2.134330   1.985470   0.715778   4.310472   0.063303   2.371335  -0.026462   1.117729  -0.914322  -5.284629   0.431166   0.247456  -2.228948   1.844507  -0.173774  -4.436063   0.070412  -2.636555   0.027783   1.046842   0.723003   5.341799   1.398031  -0.046972  -0.768428   1.432475   0.003382   0.000870  -1.602895  -0.589237   0.168546  -0.200657  -0.000354   0.000330   1.516298  -0.016000   0.087641   1.202914  -0.001441   0.000984  -1.501517   0.407129   0.176796   0.516132  -0.000916   0.001200
 -2.375366   0.929009   3.977580  -2.331330   0.334161   0.307138   1.940199   0.023325  -0.100312   0.826181  -0.548569  -0.006173  -0.290839   0.337945   0.115763   0.696296  -0.575794   4.047522   2.916971   1.218882   7.187810   0.099414   3.485921  -0.033671   1.680496  -1.017902  -6.652050   0.629256   0.227852  -4.205956   2.720383  -0.431927  -7.398229   0.110229  -3.877429   0.035728   1.579894   0.694000   6.703752   2.071706  -0.086930  -1.334602   2.166967   0.005757   0.001171  -2.323487  -0.860804   0.236574  -0.310746  -0.000670   0.000427   2.282339  -0.009318   0.282775   1.830650  -0.002705   0.001630  -2.178732   0.592601   0.261256   0.715897  -0.001376   0.001539
 -2.374834   0.930043   3.978281  -3.044055   0.463144   0.404096   2.468857   0.007767  -0.106291   1.064029  -0.736101   0.000396  -0.375236   0.436666   0.158596   0.902857  -0.626722   6.218776   3.804674   1.801293  10.342654   0.130786   4.536964  -0.037959   2.225042  -1.025412  -7.329447   0.808299   0.151919  -6.465544   3.535760  -0.767808 -10.536524   0.144148  -5.050108   0.040515   2.098779   0.553822   7.325116   2.697595  -0.135372  -1.977002   2.855957   0.007980   0.001245  -2.996305  -1.116491   0.295847  -0.418344  -0.001002   0.000493   3.020206   0.005227   0.565397   2.426043  -0.004032   0.002189  -2.811538   0.766108   0.342957   0.892057  -0.001783   0.001740
 -2.374353   0.930518   3.979032  -3.705689   0.584974   0.497131   2.948689  -0.012522  -0.112433   1.270926  -0.917834  -0.001547  -0.458973   0.528710   0.202164   1.094987  -0.643722   8.512045   4.647225   2.452756  13.683460   0.155535   5.523959  -0.040168   2.749511  -0.976367  -7.532195   0.968448   0.044282  -8.874944   4.275477  -1.153905 -13.680988   0.169841  -6.153825   0.042877   2.599874   0.345891   7.417828   3.276321  -0.190651  -2.673542   3.498313   0.009867   0.001130  -3.624833  -1.356914   0.347499  -0.523183  -0.001319   0.000539   3.727886   0.026339   0.920831   2.987895  -0.005300   0.002633  -3.402942   0.928272   0.421791   1.047703  -0.002115   0.001829
 -2.373944   0.930240   3.979828  -4.319804   0.697692   0.585787   3.386456  -0.035604  -0.121316   1.453120  -1.092185  -0.010101  -0.540339   0.614473   0.242771   1.274050  -0.641330  10.841422   5.436911   3.159367  17.124470   0.173254   6.448323  -0.040868   3.252457  -0.894645  -7.416062   1.110995  -0.077927 -11.326857   4.943510  -1.571872 -16.757981   0.187066  -7.189414   0.043526   3.079951   0.100609   7.174166   3.810597  -0.251128  -3.406476   4.096555   0.011353   0.000887  -4.211976  -1.582692   0.392544  -0.624002  -0.001595   0.000568   4.405083   0.052973   1.335026   3.517809  -0.006430   0.002968  -3.955548   1.079749   0.497691   1.186106  -0.002364   0.001838
 -2.373565   0.928478   3.980035  -4.497389   0.709350   0.568424   3.454208  -0.045137   0.009228   1.604925  -1.217515  -0.022714  -0.811871   0.562667   0.216204   1.531448  -0.459762  12.647580   6.227655   3.798178  20.151281   0.187434   7.523129  -0.044380   3.710574  -0.752098  -6.050518   1.412429  -0.260800 -13.017188   5.490282  -1.893306 -19.840935   0.197985  -8.318959   0.045805   3.510429  -0.260675   5.954847   3.712954  -0.609374  -3.979036   4.868105   0.012868  -0.002181  -4.443920  -1.878392   0.679587  -0.573660  -0.001135   0.000166   4.661518   0.213164   1.798000   3.530273  -0.005191   0.002396  -4.019428   1.231443   0.491167   1.343013  -0.002476   0.001926
 -2.373200   0.925460   3.980010  -4.623838   0.712270   0.533643   3.551428  -0.053678   0.154575   1.731640  -1.322409  -0.016965  -1.083427   0.506921   0.189800   1.744630  -0.239802  14.131135   6.926233   4.455601  22.829492   0.190612   8.541372  -0.046310   4.165117  -0.517565  -4.802179   1.677590  -0.456120 -14.386504   5.982240  -2.223905 -22.583935   0.197778  -9.380503   0.046740   3.927071  -0.673796   4.833651   3.567242  -0.962278  -4.481368   5.578352   0.013363  -0.004481  -4.654013  -2.159470   0.946170  -0.493404  -0.000711  -0.000327   4.823951   0.364821   2.221814   3.438916  -0.003855   0.001770  -4.079868   1.373291   0.485363   1.509253  -0.002516   0.001985
 -2.372845   0.921325   3.979883  -4.731748   0.715357   0.495036   3.668876  -0.053899   0.301367   1.857416  -1.410269   0.000523  -1.333540   0.454191   0.166318   1.920873  -0.008685  15.379211   7.543028   5.109324  25.226021   0.186639   9.499146  -0.046872   4.604098  -0.251457  -3.805393   1.907675  -0.653145 -15.520298   6.422554  -2.555218 -25.039312   0.190673 -10.375055   0.046366   4.324960  -1.090316   3.958633   3.426480  -1.291385  -4.930304   6.232615   0.013188  -0.005981  -4.849377  -2.422788   1.193997  -0.417944  -0.000408  -0.000670   4.925239   0.505713   2.596262   3.319838  -0.002749   0.001241  -4.137748   1.505367   0.480010   1.660730  -0.002428   0.001966
